<?xml version="1.0" standalone="no"?><!DOCTYPE svg PUBLIC "-//W3C//DTD SVG 1.1//EN" "http://www.w3.org/Graphics/SVG/1.1/DTD/svg11.dtd"><svg t="1537948236281" class="icon" style="" viewBox="0 0 1024 1024" version="1.1" xmlns="http://www.w3.org/2000/svg" p-id="2679" xmlns:xlink="http://www.w3.org/1999/xlink" width="200" height="200"><defs><style type="text/css"></style></defs><path d="M318.78137 538.869974l-120.216989 243.62874c-10.07138 27.421536 11.835559 51.999304 39.204907 39.281655L480.951867 701.346439c10.473539-2.044566 20.641109-6.115278 28.763091-14.256702l432.006108-432.829869c21.682835-21.727861 21.682835-56.970526 0-78.698386l-98.182137-98.368378c-21.688975-21.714558-56.855916-21.714558-78.544891 0L333.00021 510.036275C324.878229 518.164397 320.813656 528.344247 318.78137 538.869974L318.78137 538.869974M784.637424 136.227638c10.819416-10.863419 28.418236-10.863419 39.262212 0l58.900481 59.034535c10.857279 10.863419 10.857279 28.463262 0 39.33282l-58.900481 59.008952-96.763834-99.773378L784.637424 136.227638 784.637424 136.227638M685.746136 235.285724l98.892311 97.677647L470.471165 647.743614c-25.095561-25.121144-20.091594-20.111037-17.791202-17.777899l-1.865487-1.88493-58.919924-59.028395c-10.844999-10.870582-9.202593-9.214872-19.644409-19.669992L685.746136 235.285724 685.746136 235.285724M421.514149 677.426657l-150.168138 91.070158c-13.669324 6.351662-25.932626-6.818289-19.579941-19.644409l90.89722-150.443407L421.514149 677.426657 421.514149 677.426657M902.688073 397.021316l0 447.796746c0 30.738072-30.367635 56.3064-61.003376 56.3064l-666.48956 0c-30.661324 0-55.519478-24.922622-55.519478-55.654554L119.67566 177.720657c0-30.731932 25.593911-60.587913 56.255235-60.587913L623.177102 117.132744 623.177102 61.152778 175.929872 61.152778c-61.35437 0-111.800295 55.097876-111.800295 116.567879l0 667.748227c0 61.470003 49.756217 111.289666 111.065562 111.289666l666.48956 0c61.322647 0 116.918873-50.484811 116.918873-111.941512L958.603571 397.021316 902.688073 397.021316 902.688073 397.021316M902.688073 397.021316" p-id="2680"></path></svg>