<?xml version="1.0" standalone="no"?><!DOCTYPE svg PUBLIC "-//W3C//DTD SVG 1.1//EN" "http://www.w3.org/Graphics/SVG/1.1/DTD/svg11.dtd"><svg t="1511504199105" class="icon" style="" viewBox="0 0 1024 1024" version="1.1" xmlns="http://www.w3.org/2000/svg" p-id="1815" xmlns:xlink="http://www.w3.org/1999/xlink" width="64" height="64"><defs><style type="text/css"></style></defs><path d="M906.175287 511.601324c0-17.394122-1.60786-33.76506-3.654227-50.135999l110.942341-84.412651a25.360338 25.360338 0 0 0 6.285271-32.741876l-105.168662-177.010771a26.822028 26.822028 0 0 0-32.084116-11.25502l-130.967506 51.159182a386.982672 386.982672 0 0 0-88.870808-50.135998L642.632414 21.496358A25.433422 25.433422 0 0 0 616.906654 0.009501H406.496245a25.433422 25.433422 0 0 0-25.72576 21.486857l-20.025165 135.571833a406.934753 406.934753 0 0 0-88.870808 50.135998l-130.967507-51.159182a26.018098 26.018098 0 0 0-32.084116 11.25502L3.654227 344.310798a24.775661 24.775661 0 0 0 6.358356 32.741876l111.015425 84.412651c-2.192536 16.370938-3.654227 33.253468-3.654227 50.135999 0 16.88253 1.461691 33.76506 3.654227 50.135998L9.939498 646.149973a25.360338 25.360338 0 0 0-6.285271 32.741877l105.241747 177.010771c6.285271 11.25502 20.463673 15.347755 32.011031 11.25502l130.967507-51.159183c27.33362 20.463673 56.786692 37.346203 88.870808 50.135999l20.025165 135.571833a25.433422 25.433422 0 0 0 25.72576 21.486857h210.410409c13.155218 0 24.1179-9.208653 25.72576-21.486857l20.025166-135.571833a406.934753 406.934753 0 0 0 88.870808-50.135999l130.967506 51.159183c12.132035 4.604326 25.798845 0 32.084116-11.25502l105.241746-177.010771a25.360338 25.360338 0 0 0-6.358355-32.741877l-111.015426-84.412651c2.192536-16.370938 3.654227-32.741877 3.654228-50.135998zM511.737992 690.658462c-101.587519 0-184.173056-80.319916-184.173056-179.057138 0-98.737222 82.585537-179.057138 184.173056-179.057138C613.179342 332.544186 695.764879 412.864102 695.764879 511.601324c0 98.737222-82.585537 179.057138-184.026887 179.057138z"  p-id="6010" fill="#ffffff"></path></svg>
