<?xml version="1.0" standalone="no"?><!DOCTYPE svg PUBLIC "-//W3C//DTD SVG 1.1//EN" "http://www.w3.org/Graphics/SVG/1.1/DTD/svg11.dtd"><svg t="1531804800055" class="icon" style="" viewBox="0 0 1024 1024" version="1.1" xmlns="http://www.w3.org/2000/svg" p-id="4986" xmlns:xlink="http://www.w3.org/1999/xlink" width="200" height="200"><defs><style type="text/css"></style></defs><path d="M595.072 290.288L537.472 160H108.8A28.528 28.528 0 0 0 80 188.24V880h864V290.288H595.072zM137.6 244.688a28.528 28.528 0 0 1 28.8-28.224h342.272l28.8 73.824H137.6v-45.6z m748.8 578.848H137.6v-476.8h748.8v476.8z" p-id="4987" fill="#ffffff"></path><path d="M595.072 290.288L537.472 160H108.8A28.528 28.528 0 0 0 80 188.24V880h864V290.288H595.072zM137.6 244.688a28.528 28.528 0 0 1 28.8-28.224h342.272l28.8 73.824H137.6v-45.6z m748.8 578.848H137.6v-476.8h748.8v476.8z" p-id="4988" fill="#ffffff"></path></svg>