<?xml version="1.0" standalone="no"?><!DOCTYPE svg PUBLIC "-//W3C//DTD SVG 1.1//EN" "http://www.w3.org/Graphics/SVG/1.1/DTD/svg11.dtd"><svg t="1542869943110" class="icon" style="" viewBox="0 0 1511 1024" version="1.1" xmlns="http://www.w3.org/2000/svg" p-id="2553" xmlns:xlink="http://www.w3.org/1999/xlink" width="295.1171875" height="200"><defs><style type="text/css"></style></defs><path d="M275.391244 599.171647l11.385684-18.501737-18.501737-7.116053 2.134816-7.116053 19.213343 4.981237 1.42321-20.636553h7.116053l1.42321 20.636553 19.213343-4.981237 2.134816 7.116053-18.501737 7.116053 11.385684 18.501737-5.692842 4.269632-13.5205-17.078527-13.520501 17.078527-5.692842-4.269632zM355.802641 599.171647l11.385684-18.501737-18.501737-7.116053 2.134816-7.116053 19.213342 4.981237 1.423211-20.636553h7.116053l1.42321 20.636553 19.213343-4.981237 2.134816 7.116053-18.501738 7.116053 11.385685 18.501737-5.692842 4.269632-13.520501-17.078527-13.5205 17.078527-5.692842-4.269632zM436.925643 599.171647l11.385684-18.501737-18.501737-7.116053 2.134816-7.116053 19.213342 4.981237 1.423211-20.636553h7.116053l1.42321 20.636553 19.213343-4.981237 2.134816 7.116053-18.501737 7.116053 11.385684 18.501737-5.692842 4.269632-13.520501-17.078527-13.5205 17.078527-5.692842-4.269632zM517.33704 599.171647l11.385684-18.501737-18.501737-7.116053 2.134816-7.116053 19.213342 4.981237 1.423211-20.636553h7.116053l1.42321 20.636553 19.213343-4.981237 2.134816 7.116053-18.501738 7.116053 11.385685 18.501737-5.692842 4.269632-13.520501-17.078527-13.5205 17.078527-5.692842-4.269632zM597.748436 599.171647l11.385685-18.501737-18.501737-7.116053 2.134815-7.116053 19.213343 4.981237 1.423211-20.636553h7.116052l1.423211 20.636553 19.213343-4.981237 2.134815 7.116053-18.501737 7.116053 11.385685 18.501737-5.692843 4.269632-13.5205-17.078527-13.5205 17.078527-5.692843-4.269632z" fill="#238F91" p-id="2554"></path><path d="M722.990966 678.159833h-576.400278V175.766505h977.034051v193.556636c4.981237 3.558026 9.250869 7.116053 14.232106 11.385685V161.534399H132.358582v531.569145h596.325226c-2.134816-4.981237-4.269632-9.962474-5.692842-14.943711z" fill="" p-id="2555"></path><path d="M1320.027797 873.13968l-149.437109-149.437109c29.175817-41.273106 44.831133-90.373871 44.831133-142.321056 0-66.179291-25.61779-128.088951-72.583739-175.054899-46.965949-46.965949-108.875608-72.583739-175.054899-72.583739s-128.088951 25.61779-175.054899 72.583739c-46.965949 46.965949-72.583739 108.875608-72.583739 175.054899s25.61779 128.088951 72.583739 175.054899c46.965949 46.965949 108.875608 72.583739 175.054899 72.583739 51.947186 0 101.04795-15.655316 142.321056-44.831133l149.437109 149.437109c16.366921 16.366921 43.407922 16.366921 59.774844 0l0.711605-0.711605c16.366921-16.366921 16.366921-42.696317 0-59.774844zM803.402363 747.185546c-44.119527-44.119527-68.314107-102.471161-68.314107-165.092426 0-61.909659 24.19458-120.972898 68.314107-165.092425 44.119527-44.119527 102.471161-68.314107 165.092425-68.314107s120.972898 24.19458 165.092425 68.314107c44.119527 44.119527 68.314107 102.471161 68.314107 165.092425 0 61.909659-24.19458 120.972898-68.314107 165.092426-44.119527 44.119527-102.471161 68.314107-165.092425 68.314107s-120.972898-24.906185-165.092425-68.314107z" fill="" p-id="2556"></path><path d="M847.52189 547.936067l-25.61779 49.812369v29.175817H811.230021v-28.464211l-24.906185-49.81237h11.385685l17.078526 34.868659s0.711605 1.423211 2.134816 4.981237c0.711605-1.423211 1.423211-2.846421 2.134816-4.981237l17.790132-34.868659h10.674079zM928.644892 626.924253v-51.947186c0-4.269632 0-9.250869 0.711606-15.655316-0.711605 3.558026-1.423211 6.404448-2.134816 7.827658l-25.61779 59.774844h-5.692843l-25.61779-59.063238c-0.711605-1.423211-1.423211-4.269632-2.134816-8.539264 0 3.558026 0.711605 9.250869 0.711606 15.655316V626.212648h-9.962474V547.936067h13.5205l22.771369 53.370396c1.423211 4.269632 2.846421 7.116053 3.558026 9.962474 1.423211-4.981237 2.846421-7.827658 3.558027-9.962474l23.482974-53.370396h12.808895v78.276581h-9.962474zM1018.307158 547.936067l-28.464212 78.276581h-11.385684l-28.464211-78.276581h11.385684l21.348159 61.198054c0.711605 2.134816 1.423211 4.269632 1.42321 7.116053 0-2.134816 0.711605-4.981237 1.423211-7.116053l21.348158-61.198054h11.385685zM1024 604.864489c0-4.269632 1.423211-8.539263 4.269632-12.808895 2.846421-3.558026 6.404448-6.404448 10.674079-7.827658-3.558026-2.134816-6.404448-4.269632-7.827658-7.116053-2.134816-2.846421-2.846421-6.404448-2.846421-9.962474 0-3.558026 0.711605-7.116053 2.846421-9.962474s4.269632-5.692842 7.827658-7.116052c3.558026-1.423211 7.116053-2.846421 11.385684-2.846422 4.269632 0 7.827658 0.711605 11.385685 2.846422 3.558026 1.423211 6.404448 4.269632 7.827658 7.116052 2.134816 2.846421 2.846421 6.404448 2.846421 9.962474 0 3.558026-0.711605 6.404448-2.846421 9.962474-2.134816 2.846421-4.981237 5.692842-7.827658 7.116053 4.269632 1.423211 7.827658 4.269632 10.674079 8.539263 2.846421 3.558026 4.269632 7.827658 4.269632 12.09729 0 4.269632-0.711605 8.539263-2.846421 12.09729s-4.981237 6.404448-9.250869 8.539263c-3.558026 2.134816-8.539263 2.846421-13.5205 2.846422s-9.250869-0.711605-12.808895-2.846422c-3.558026-2.134816-7.116053-4.981237-9.250869-8.539263-4.269632-3.558026-4.981237-7.827658-4.981237-12.09729z m9.962474-0.711605c0 4.981237 1.423211 8.539263 4.269632 11.385684 2.846421 2.846421 6.404448 4.269632 11.385684 4.269632 4.981237 0 8.539263-1.423211 11.385685-4.269632 2.846421-2.846421 4.269632-6.404448 4.269631-11.385684 0-4.269632-1.423211-7.827658-4.269631-10.674079-2.846421-2.846421-7.116053-4.269632-11.385685-4.269632-4.269632 0-8.539263 1.423211-11.385684 4.269632-2.846421 2.846421-4.269632 6.404448-4.269632 10.674079z m2.846421-36.291869c0 3.558026 1.423211 6.404448 3.558026 9.250868s5.692842 3.558026 9.250869 3.558027 6.404448-1.423211 9.250869-3.558027c2.846421-2.846421 3.558026-5.692842 3.558026-9.250868s-1.423211-6.404448-3.558026-9.250869c-2.134816-2.134816-5.692842-3.558026-9.250869-3.558026s-7.116053 1.423211-9.250869 3.558026-3.558026 5.692842-3.558026 9.250869zM1144.972898 626.924253h-12.09729l-17.790132-29.175817c-0.711605-0.711605-0.711605-2.134816-1.423211-4.269631l-2.134815 4.269631-17.790132 29.175817H1081.640028l26.329395-39.138291-24.194579-39.13829h12.097289l15.655317 27.041001c0.711605 1.423211 2.134816 3.558026 2.846421 5.692842 0.711605-2.134816 2.134816-3.558026 2.846421-5.692842l16.366921-27.041001h11.385685l-24.19458 39.13829 24.19458 39.138291z" fill="#249091" p-id="2557"></path></svg>