<?xml version="1.0" standalone="no"?><!DOCTYPE svg PUBLIC "-//W3C//DTD SVG 1.1//EN" "http://www.w3.org/Graphics/SVG/1.1/DTD/svg11.dtd"><svg t="1532160042610" class="icon" style="" viewBox="0 0 1024 1024" version="1.1" xmlns="http://www.w3.org/2000/svg" p-id="5865" xmlns:xlink="http://www.w3.org/1999/xlink" width="200" height="200"><defs><style type="text/css"></style></defs><path d="M921.6 358.4H68.266667a34.133333 34.133333 0 0 0-34.133334 34.133333v477.866667c0 37.546667 30.72 68.266667 68.266667 68.266667h819.2c37.546667 0 68.266667-30.72 68.266667-68.266667V426.666667c0-37.546667-30.72-68.266667-68.266667-68.266667zM68.266667 290.133333h439.7056c25.378133 0 41.8816-26.709333 30.532266-49.390933l-58.8288-117.6576A68.266667 68.266667 0 0 0 418.6112 85.333333H102.4a68.266667 68.266667 0 0 0-68.266667 68.266667v102.4a34.133333 34.133333 0 0 0 34.133334 34.133333z" fill="#040000" p-id="5866"></path></svg>